<svg xmlns="http://www.w3.org/2000/svg" xmlns:xlink="http://www.w3.org/1999/xlink" viewBox="0 0 184.58 118.15"><defs><style>.cls-1{fill:url(#linear-gradient);}.cls-2{fill:url(#linear-gradient-2);}.cls-3{fill:url(#linear-gradient-3);}.cls-4,.cls-5,.cls-7{opacity:0.5;}.cls-4{fill:url(#linear-gradient-4);}.cls-6{fill:url(#linear-gradient-5);}.cls-7{fill:url(#linear-gradient-6);}.cls-8{fill:url(#linear-gradient-7);}.cls-9{fill:url(#linear-gradient-8);}.cls-10{fill:url(#linear-gradient-9);}</style><linearGradient id="linear-gradient" x1="47.86" y1="-59.25" x2="47.86" y2="119.22" gradientUnits="userSpaceOnUse"><stop offset="0" stop-color="#6f2e99"/><stop offset="0.14" stop-color="#5b2f98"/><stop offset="0.39" stop-color="#3e3197"/><stop offset="0.53" stop-color="#333296"/><stop offset="0.59" stop-color="#313798"/><stop offset="0.67" stop-color="#2c459f"/><stop offset="0.76" stop-color="#245cab"/><stop offset="0.85" stop-color="#197dbb"/><stop offset="0.94" stop-color="#0aa6cf"/><stop offset="1" stop-color="#00c4de"/></linearGradient><linearGradient id="linear-gradient-2" x1="139.76" y1="-59.25" x2="139.76" y2="119.22" gradientUnits="userSpaceOnUse"><stop offset="0.53" stop-color="#c5f9f7"/><stop offset="0.58" stop-color="#c0f8f6"/><stop offset="0.65" stop-color="#b2f4f5"/><stop offset="0.72" stop-color="#9beef2"/><stop offset="0.8" stop-color="#7ae5ee"/><stop offset="0.88" stop-color="#50dae8"/><stop offset="0.96" stop-color="#1ecce2"/><stop offset="1" stop-color="#00c4de"/></linearGradient><linearGradient id="linear-gradient-3" x1="33.45" y1="-59.25" x2="33.45" y2="119.22" xlink:href="#linear-gradient-2"/><linearGradient id="linear-gradient-4" x1="110.68" y1="-59.25" x2="110.68" y2="119.22" xlink:href="#linear-gradient"/><linearGradient id="linear-gradient-5" x1="82.16" y1="-59.25" x2="82.16" y2="119.22" xlink:href="#linear-gradient"/><linearGradient id="linear-gradient-6" x1="110.04" y1="-59.25" x2="110.04" y2="119.22" xlink:href="#linear-gradient"/><linearGradient id="linear-gradient-7" x1="47.85" y1="-59.25" x2="47.85" y2="119.22" xlink:href="#linear-gradient"/><linearGradient id="linear-gradient-8" x1="138.21" y1="-59.25" x2="138.21" y2="119.22" xlink:href="#linear-gradient"/><linearGradient id="linear-gradient-9" x1="138.21" y1="-59.25" x2="138.21" y2="119.22" xlink:href="#linear-gradient"/></defs><g id="Layer_2" data-name="Layer 2"><g id="Graphic_Elements" data-name="Graphic Elements"><path class="cls-1" d="M64.35,77.51V51.11l0,.07V0h-33V87.2a250.26,250.26,0,0,0,26.23-7.37C60,79,62.27,78.24,64.35,77.51Z"/><path class="cls-2" d="M184.28,16c-3.42-9.19-19.81-7.55-27.66-6.79V10.8a1.1,1.1,0,0,1,0,.18c1.69,0,3.37.12,5.06.26,4,.32,11.56.91,15.66,3.29a3.37,3.37,0,0,1,1.41,4.15v0c-2,4.32-6.44,8.28-10.33,11.41C158.08,38.29,146.61,45,135.06,51.21Q115.45,61.7,94.94,70.36l2,5.12,0,.07,0,.07,1.81,5.47c21.52-9.27,42.44-20.1,61.42-33.85C168,41.27,187.17,27,184.28,16Z"/><path class="cls-3" d="M59,84.07c-13.4,4.27-38.3,12.29-51.72,9.2-1.81-.64-.21-3.77.44-5.29.14-.33.29-.66.44-1,2.36-4.76,6-9,9.53-13.13s7.58-8.08,11.5-12l0-1.68C20.78,66-9.25,86.79,2.83,98.11c12.7,9.59,49.44-.84,64.07-5.3L63.53,82.52Z"/><path class="cls-4" d="M121.2,75.67c-6.8,3.38-13.83,6.62-21,9.68l9,27.07Z"/><g class="cls-5"><polygon class="cls-6" points="97.93 89.96 95.44 82.48 93.54 76.75 91.64 71.74 64.38 0 57.03 0 57.03 51.18 66.91 81.34 70.31 91.72 78.96 118.15 107.28 118.15 107.28 118.15 97.93 89.96"/></g><path class="cls-7" d="M106.39,60.4c5.21-2.32,10.43-4.9,15.48-7.4V51.11h0V0h0L98.22,64.08c2.54-1.11,5.22-2.32,8.13-3.66Z"/><path class="cls-8" d="M31.34,118.15h33V98.27a212.17,212.17,0,0,1-33,7.32Z"/><path class="cls-9" d="M121.87,75.33v42.82h32.68V56.6c-6.71,4.45-14.13,8.89-22.49,13.43Q127.06,72.73,121.87,75.33Z"/><path class="cls-10" d="M129.24,0h-7.37V51.12h0V53l0,0,.15-.07c2.48-1.25,4.86-2.47,7.18-3.68,8.57-4.49,16.1-8.79,22.8-13,.87-.55,1.7-1.09,2.51-1.62V0Z"/></g></g></svg>